<svg xmlns="http://www.w3.org/2000/svg" viewBox="0 0 64 64"><path d="M27 0h10c1.7 0 3 1.3 3 3v21h11c2.2 0 3.3 2.7 1.8 4.3l-19 19c-.9.9-2.5.9-3.4 0l-19-19C9.7 26.7 10.8 24 13 24h11V3c0-1.7 1.3-3 3-3zm37 47v14c0 1.7-1.3 3-3 3H3c-1.7 0-3-1.3-3-3V47c0-1.7 1.3-3 3-3h18.3l6.1 6.1c2.5 2.5 6.6 2.5 9.1 0l6.1-6.1H61c1.7 0 3 1.3 3 3zM48.5 58c0-1.4-1.1-2.5-2.5-2.5s-2.5 1.1-2.5 2.5 1.1 2.5 2.5 2.5 2.5-1.1 2.5-2.5zm8 0c0-1.4-1.1-2.5-2.5-2.5s-2.5 1.1-2.5 2.5 1.1 2.5 2.5 2.5 2.5-1.1 2.5-2.5z" fill="#40403f"/></svg>