<svg xmlns="http://www.w3.org/2000/svg" viewBox="0 0 64 64"><path d="M42.7 52v-6.7c0-.4-.1-.7-.4-1s-.6-.4-1-.4h-4V22.7c0-.4-.1-.7-.4-1s-.6-.4-1-.4H22.7c-.4 0-.7.1-1 .4s-.4.6-.4 1v6.7c0 .4.1.7.4 1s.6.4 1 .4h4V44h-4c-.4 0-.7.1-1 .4s-.4.6-.4 1V52c0 .4.1.7.4 1s.6.4 1 .4h18.7c.4 0 .7-.1 1-.4s.3-.6.3-1zm-5.4-37.3V8c0-.4-.1-.7-.4-1s-.6-.4-1-.4h-8c-.4 0-.7.1-1 .4s-.4.6-.4 1v6.7c0 .4.1.7.4 1s.6.4 1 .4h8c.4 0 .7-.1 1-.4s.4-.6.4-1zM64 32c0 5.8-1.4 11.2-4.3 16.1-2.9 4.9-6.7 8.7-11.6 11.6C43.2 62.6 37.8 64 32 64s-11.2-1.4-16.1-4.3C11 56.8 7.2 53 4.3 48.1S0 37.8 0 32s1.4-11.2 4.3-16.1S11 7.2 15.9 4.3 26.2 0 32 0s11.2 1.4 16.1 4.3 8.8 6.7 11.6 11.6C62.6 20.8 64 26.2 64 32z" fill="#fff"/></svg>