<svg xmlns="http://www.w3.org/2000/svg" viewBox="0 0 64 64"><path fill="#ffffff" d="M63 38.7v.3c-1.8 7.4-5.5 13.5-11.2 18.1S39.4 64 31.8 64c-4.1 0-8-.8-11.8-2.3-3.8-1.5-7.2-3.7-10.1-6.5l-5.4 5.4c-.5.5-1.2.8-1.9.8s-1.3-.3-1.9-.8C.3 60 0 59.4 0 58.7V40c0-.7.3-1.3.8-1.9s1.2-.8 1.9-.8h18.7c.7 0 1.3.3 1.9.8s.7 1.2.7 1.9-.3 1.3-.8 1.9l-5.7 5.7c2 1.8 4.2 3.2 6.7 4.2s5.1 1.5 7.8 1.5c3.7 0 7.2-.9 10.4-2.7 3.2-1.8 5.8-4.3 7.8-7.5.3-.5 1-2.1 2.2-4.9.2-.6.6-1 1.2-1h8c.4 0 .7.1.9.4.3.4.5.7.5 1.1zm1-33.4V24c0 .7-.3 1.3-.8 1.9-.5.5-1.2.8-1.9.8H42.7c-.7 0-1.3-.3-1.9-.8-.5-.6-.8-1.2-.8-1.9s.3-1.3.8-1.9l5.8-5.8c-4.1-3.8-9-5.7-14.5-5.7-3.7 0-7.2.9-10.4 2.7s-5.8 4.3-7.8 7.5c-.3.5-1 2.1-2.2 4.9-.2.6-.6 1-1.2 1H2.1c-.4 0-.7-.1-.9-.4-.3-.3-.4-.6-.4-.9V25C2.6 17.6 6.3 11.6 12 6.9S24.4 0 32 0c4.1 0 8 .8 11.8 2.3S51.1 6 54 8.8l5.4-5.4c.5-.5 1.2-.8 1.9-.8s1.3.3 1.9.8c.5.6.8 1.2.8 1.9z"/></svg>
