<svg xmlns="http://www.w3.org/2000/svg" viewBox="0 0 202.1 58.5"><path d="M201.3 19.7l-16 15.1c-1.7 1.6-4.5.4-4.5-1.9v-8c-16.1.1-22.8 3.9-18.3 19 .5 1.7-1.4 3-2.8 1.9-4.3-3.3-8.2-9.6-8.2-15.9 0-16 13.1-19.2 29.3-19.3v-8c0-2.4 2.8-3.5 4.5-1.9l16 15.1c1.1 1.1 1.1 2.9 0 3.9zm-20.5 22.4v7.7h-35.6V14.2h5.7c.4 0 .7-.1 1-.4 1.7-1.7 3.6-3.1 5.7-4.2 1.2-.6.8-2.5-.6-2.5h-13.4c-2.9 0-5.3 2.4-5.3 5.3v39.1c0 2.9 2.4 5.3 5.3 5.3h39.1c2.9 0 5.3-2.4 5.3-5.3v-9.9c0-.9-.9-1.6-1.8-1.3-1.2.4-2.5.6-3.8.4-.9 0-1.6.6-1.6 1.4zM61.9 15.7c-.5-.4-.9-.6-1.4-.8s-.9-.3-1.3-.3c-.5 0-1 .1-1.3.4s-.5.6-.5 1c0 .3.1.5.3.7.2.2.4.3.7.5s.6.3.9.3c.3.1.7.2 1 .3 1.4.5 2.3 1.1 3 1.8.6.8.9 1.7.9 3 0 .8-.1 1.6-.4 2.2s-.7 1.2-1.2 1.7-1.2.8-1.9 1.1-1.7.4-2.6.4c-2 0-3.9-.6-5.6-1.8l1.8-3.3c.6.5 1.2 1 1.8 1.2.6.3 1.2.4 1.8.4.7 0 1.2-.2 1.5-.5.3-.3.5-.7.5-1.1 0-.2 0-.4-.1-.6-.1-.2-.2-.3-.4-.5-.2-.1-.5-.3-.8-.4-.3-.1-.7-.3-1.2-.4-.5-.2-1.1-.4-1.6-.6-.5-.2-1-.5-1.4-.8s-.7-.8-1-1.3c-.2-.5-.4-1.2-.4-2s.1-1.5.4-2.1c.3-.6.6-1.2 1.1-1.6.5-.5 1.1-.8 1.7-1.1.7-.3 1.4-.4 2.3-.4.8 0 1.6.1 2.5.3.9.2 1.7.5 2.5 1l-1.6 3.3zm9.1 2h6v-6.2h4.1v15.9H77V21h-6v6.6h-4.1v-16H71v6.1zm23.2 7.1h-5.9l-1 2.8h-4.4l6.1-16h4.5l6.1 15.9h-4.4l-1-2.7zm-1.1-3.2l-1.9-5.3-1.9 5.3h3.8zm21.6 5.9h-5.2l-4-6.1v6.1h-4.1V11.6h6.4c.9 0 1.7.1 2.3.4.7.3 1.2.6 1.6 1.1s.8 1 1 1.6c.2.6.3 1.2.3 1.9 0 1.2-.3 2.2-.9 3-.6.8-1.4 1.3-2.6 1.5l5.2 6.4zm-9.1-8.8h.8c.8 0 1.4-.2 1.9-.5.4-.3.7-.8.7-1.5 0-.6-.2-1.1-.7-1.5-.4-.3-1.1-.5-1.9-.5h-.8v4zm19.9-3.6h-4.9v2.7h4.7v3.5h-4.7V24h4.9v3.5h-9.1V11.6h9.1v3.5zM5.8 43.5L0 35.3h4.9l3 4.4 2.9-4.4h4.9L10 43.5v7.7H5.8v-7.7zm9.6-.3c0-1.2.2-2.3.7-3.3.4-1 1-1.9 1.8-2.7.8-.8 1.7-1.4 2.8-1.8s2.3-.6 3.6-.6c1.3 0 2.5.2 3.6.6 1.1.4 2 1 2.8 1.8.8.8 1.4 1.7 1.8 2.7.4 1 .7 2.1.7 3.3 0 1.2-.2 2.3-.7 3.3-.4 1-1 1.9-1.8 2.7-.8.8-1.7 1.4-2.8 1.8-1.1.4-2.3.6-3.6.6-1.3 0-2.5-.2-3.6-.6-1.1-.4-2-1-2.8-1.8s-1.4-1.7-1.8-2.7c-.5-1-.7-2.1-.7-3.3zm4.3 0c0 .6.1 1.2.4 1.8s.6 1 1 1.4c.4.4.9.7 1.4.9.5.2 1.1.3 1.7.3.6 0 1.2-.1 1.7-.3.5-.2 1-.5 1.4-.9.4-.4.7-.9 1-1.4.2-.5.4-1.1.4-1.8 0-.6-.1-1.2-.4-1.8-.2-.5-.6-1-1-1.4-.4-.4-.9-.7-1.4-.9-.5-.2-1.1-.3-1.7-.3-.6 0-1.2.1-1.7.3-.5.2-1 .5-1.4.9-.4.4-.7.9-1 1.4-.2.6-.4 1.2-.4 1.8zm20.1-7.9V44c0 .5 0 .9.1 1.4 0 .5.1.9.3 1.3.2.4.5.7.8 1 .4.2.9.4 1.6.4.7 0 1.2-.1 1.6-.4.4-.2.7-.6.8-1 .2-.4.3-.8.3-1.3s.1-1 .1-1.4v-8.7h4.1v9.2c0 2.5-.6 4.3-1.7 5.4-1.1 1.1-2.9 1.7-5.2 1.7-2.4 0-4.1-.6-5.2-1.7-1.1-1.1-1.7-3-1.7-5.4v-9.2h4.1zm26.4 15.9H61l-4-6.1v6.1h-4.1V35.3h6.4c.9 0 1.7.1 2.3.4.7.3 1.2.6 1.6 1.1s.8 1 1 1.6c.2.6.3 1.2.3 1.9 0 1.2-.3 2.2-.9 3-.6.8-1.4 1.3-2.6 1.5l5.2 6.4zm-9.1-8.8h.8c.8 0 1.4-.2 1.9-.5.4-.3.7-.8.7-1.5 0-.6-.2-1.1-.7-1.5-.4-.3-1.1-.5-1.9-.5h-.8v4zm24-3.6v12.4H77V38.8h-3.4v-3.5h11v3.5h-3.5zm9.4-3.5v15.9h-4.1V35.3h4.1zm9.4 3.5v12.4h-4.1V38.8h-3.4v-3.5h11v3.5h-3.5zm9.4-3.5v12.4h5v3.5h-9.1V35.3h4.1zm16.2 3.5h-4.9v2.7h4.7V45h-4.7v2.7h4.9v3.5h-9.1V35.3h9.1v3.5z" fill="#fff"/></svg>