<?xml version="1.0" encoding="utf-8"?>
<!-- Generator: Adobe Illustrator 22.1.0, SVG Export Plug-In . SVG Version: 6.00 Build 0)  -->
<svg version="1.1" id="Layer_1" xmlns="http://www.w3.org/2000/svg" xmlns:xlink="http://www.w3.org/1999/xlink" x="0px" y="0px"
	 viewBox="0 0 64 64" style="enable-background:new 0 0 64 64;" xml:space="preserve">
<style type="text/css">
	.st0{fill:#FFFFFF;}
</style>
<path class="st0" d="M42.7,52v-6.7c0-0.4-0.1-0.7-0.4-1s-0.6-0.4-1-0.4h-4V22.7c0-0.4-0.1-0.7-0.4-1s-0.6-0.4-1-0.4H22.7
	c-0.4,0-0.7,0.1-1,0.4s-0.4,0.6-0.4,1v6.7c0,0.4,0.1,0.7,0.4,1s0.6,0.4,1,0.4h4V44h-4c-0.4,0-0.7,0.1-1,0.4s-0.4,0.6-0.4,1V52
	c0,0.4,0.1,0.7,0.4,1s0.6,0.4,1,0.4h18.7c0.4,0,0.7-0.1,1-0.4S42.7,52.4,42.7,52z M37.3,14.7V8c0-0.4-0.1-0.7-0.4-1s-0.6-0.4-1-0.4
	h-8c-0.4,0-0.7,0.1-1,0.4s-0.4,0.6-0.4,1v6.7c0,0.4,0.1,0.7,0.4,1s0.6,0.4,1,0.4h8c0.4,0,0.7-0.1,1-0.4S37.3,15.1,37.3,14.7z M64,32
	c0,5.8-1.4,11.2-4.3,16.1C56.8,53,53,56.8,48.1,59.7C43.2,62.6,37.8,64,32,64s-11.2-1.4-16.1-4.3C11,56.8,7.2,53,4.3,48.1
	S0,37.8,0,32s1.4-11.2,4.3-16.1S11,7.2,15.9,4.3S26.2,0,32,0s11.2,1.4,16.1,4.3s8.8,6.7,11.6,11.6C62.6,20.8,64,26.2,64,32z"/>
</svg>
