<?xml version="1.0" encoding="utf-8"?>
<!-- Generator: Adobe Illustrator 22.1.0, SVG Export Plug-In . SVG Version: 6.00 Build 0)  -->
<svg version="1.1" id="Layer_1" xmlns="http://www.w3.org/2000/svg" xmlns:xlink="http://www.w3.org/1999/xlink" x="0px" y="0px"
	 viewBox="0 0 202.1 58.5" style="enable-background:new 0 0 202.1 58.5;" xml:space="preserve">
<style type="text/css">
	.st0{fill:#FFFFFF;}
</style>
<path class="st0" d="M201.3,19.7l-16,15.1c-1.7,1.6-4.5,0.4-4.5-1.9v-8c-16.1,0.1-22.8,3.9-18.3,19c0.5,1.7-1.4,3-2.8,1.9
	c-4.3-3.3-8.2-9.6-8.2-15.9c0-16,13.1-19.2,29.3-19.3v-8c0-2.4,2.8-3.5,4.5-1.9l16,15.1C202.4,16.9,202.4,18.7,201.3,19.7z
	 M180.8,42.1v7.7h-35.6V14.2h5.7c0.4,0,0.7-0.1,1-0.4c1.7-1.7,3.6-3.1,5.7-4.2c1.2-0.6,0.8-2.5-0.6-2.5h-13.4
	c-2.9,0-5.3,2.4-5.3,5.3v39.1c0,2.9,2.4,5.3,5.3,5.3h39.1c2.9,0,5.3-2.4,5.3-5.3v-9.9c0-0.9-0.9-1.6-1.8-1.3
	c-1.2,0.4-2.5,0.6-3.8,0.4C181.5,40.7,180.8,41.3,180.8,42.1L180.8,42.1z"/>
<g>
	<path class="st0" d="M61.9,15.7c-0.5-0.4-0.9-0.6-1.4-0.8s-0.9-0.3-1.3-0.3c-0.5,0-1,0.1-1.3,0.4s-0.5,0.6-0.5,1
		c0,0.3,0.1,0.5,0.3,0.7c0.2,0.2,0.4,0.3,0.7,0.5s0.6,0.3,0.9,0.3c0.3,0.1,0.7,0.2,1,0.3c1.4,0.5,2.3,1.1,3,1.8
		c0.6,0.8,0.9,1.7,0.9,3c0,0.8-0.1,1.6-0.4,2.2s-0.7,1.2-1.2,1.7c-0.5,0.5-1.2,0.8-1.9,1.1S59,28,58.1,28c-2,0-3.9-0.6-5.6-1.8
		l1.8-3.3c0.6,0.5,1.2,1,1.8,1.2c0.6,0.3,1.2,0.4,1.8,0.4c0.7,0,1.2-0.2,1.5-0.5c0.3-0.3,0.5-0.7,0.5-1.1c0-0.2,0-0.4-0.1-0.6
		c-0.1-0.2-0.2-0.3-0.4-0.5c-0.2-0.1-0.5-0.3-0.8-0.4c-0.3-0.1-0.7-0.3-1.2-0.4c-0.5-0.2-1.1-0.4-1.6-0.6c-0.5-0.2-1-0.5-1.4-0.8
		s-0.7-0.8-1-1.3c-0.2-0.5-0.4-1.2-0.4-2s0.1-1.5,0.4-2.1c0.3-0.6,0.6-1.2,1.1-1.6c0.5-0.5,1.1-0.8,1.7-1.1c0.7-0.3,1.4-0.4,2.3-0.4
		c0.8,0,1.6,0.1,2.5,0.3c0.9,0.2,1.7,0.5,2.5,1L61.9,15.7z"/>
	<path class="st0" d="M71,17.7h6v-6.2h4.1v15.9H77V21h-6v6.6h-4.1V11.6H71V17.7z"/>
	<path class="st0" d="M94.2,24.8h-5.9l-1,2.8h-4.4L89,11.6h4.5l6.1,15.9h-4.4L94.2,24.8z M93.1,21.6l-1.9-5.3l-1.9,5.3H93.1z"/>
	<path class="st0" d="M114.7,27.5h-5.2l-4-6.1v6.1h-4.1V11.6h6.4c0.9,0,1.7,0.1,2.3,0.4c0.7,0.3,1.2,0.6,1.6,1.1s0.8,1,1,1.6
		c0.2,0.6,0.3,1.2,0.3,1.9c0,1.2-0.3,2.2-0.9,3c-0.6,0.8-1.4,1.3-2.6,1.5L114.7,27.5z M105.6,18.7h0.8c0.8,0,1.4-0.2,1.9-0.5
		c0.4-0.3,0.7-0.8,0.7-1.5c0-0.6-0.2-1.1-0.7-1.5c-0.4-0.3-1.1-0.5-1.9-0.5h-0.8V18.7z"/>
	<path class="st0" d="M125.5,15.1h-4.9v2.7h4.7v3.5h-4.7V24h4.9v3.5h-9.1V11.6h9.1V15.1z"/>
	<path class="st0" d="M5.8,43.5L0,35.3h4.9l3,4.4l2.9-4.4h4.9L10,43.5v7.7H5.8V43.5z"/>
	<path class="st0" d="M15.4,43.2c0-1.2,0.2-2.3,0.7-3.3c0.4-1,1-1.9,1.8-2.7c0.8-0.8,1.7-1.4,2.8-1.8s2.3-0.6,3.6-0.6
		c1.3,0,2.5,0.2,3.6,0.6c1.1,0.4,2,1,2.8,1.8c0.8,0.8,1.4,1.7,1.8,2.7c0.4,1,0.7,2.1,0.7,3.3c0,1.2-0.2,2.3-0.7,3.3
		c-0.4,1-1,1.9-1.8,2.7c-0.8,0.8-1.7,1.4-2.8,1.8c-1.1,0.4-2.3,0.6-3.6,0.6c-1.3,0-2.5-0.2-3.6-0.6c-1.1-0.4-2-1-2.8-1.8
		s-1.4-1.7-1.8-2.7C15.6,45.5,15.4,44.4,15.4,43.2z M19.7,43.2c0,0.6,0.1,1.2,0.4,1.8s0.6,1,1,1.4c0.4,0.4,0.9,0.7,1.4,0.9
		c0.5,0.2,1.1,0.3,1.7,0.3c0.6,0,1.2-0.1,1.7-0.3c0.5-0.2,1-0.5,1.4-0.9c0.4-0.4,0.7-0.9,1-1.4c0.2-0.5,0.4-1.1,0.4-1.8
		c0-0.6-0.1-1.2-0.4-1.8c-0.2-0.5-0.6-1-1-1.4c-0.4-0.4-0.9-0.7-1.4-0.9c-0.5-0.2-1.1-0.3-1.7-0.3c-0.6,0-1.2,0.1-1.7,0.3
		c-0.5,0.2-1,0.5-1.4,0.9c-0.4,0.4-0.7,0.9-1,1.4C19.9,42,19.7,42.6,19.7,43.2z"/>
	<path class="st0" d="M39.8,35.3v8.7c0,0.5,0,0.9,0.1,1.4c0,0.5,0.1,0.9,0.3,1.3c0.2,0.4,0.5,0.7,0.8,1c0.4,0.2,0.9,0.4,1.6,0.4
		c0.7,0,1.2-0.1,1.6-0.4c0.4-0.2,0.7-0.6,0.8-1c0.2-0.4,0.3-0.8,0.3-1.3c0-0.5,0.1-1,0.1-1.4v-8.7h4.1v9.2c0,2.5-0.6,4.3-1.7,5.4
		c-1.1,1.1-2.9,1.7-5.2,1.7c-2.4,0-4.1-0.6-5.2-1.7c-1.1-1.1-1.7-3-1.7-5.4v-9.2H39.8z"/>
	<path class="st0" d="M66.2,51.2H61l-4-6.1v6.1h-4.1V35.3h6.4c0.9,0,1.7,0.1,2.3,0.4c0.7,0.3,1.2,0.6,1.6,1.1s0.8,1,1,1.6
		c0.2,0.6,0.3,1.2,0.3,1.9c0,1.2-0.3,2.2-0.9,3c-0.6,0.8-1.4,1.3-2.6,1.5L66.2,51.2z M57.1,42.4h0.8c0.8,0,1.4-0.2,1.9-0.5
		c0.4-0.3,0.7-0.8,0.7-1.5c0-0.6-0.2-1.1-0.7-1.5c-0.4-0.3-1.1-0.5-1.9-0.5h-0.8V42.4z"/>
	<path class="st0" d="M81.1,38.8v12.4H77V38.8h-3.4v-3.5h11v3.5H81.1z"/>
	<path class="st0" d="M90.5,35.3v15.9h-4.1V35.3H90.5z"/>
	<path class="st0" d="M99.9,38.8v12.4h-4.1V38.8h-3.4v-3.5h11v3.5H99.9z"/>
	<path class="st0" d="M109.3,35.3v12.4h5v3.5h-9.1V35.3H109.3z"/>
	<path class="st0" d="M125.5,38.8h-4.9v2.7h4.7v3.5h-4.7v2.7h4.9v3.5h-9.1V35.3h9.1V38.8z"/>
</g>
</svg>
